#!OML:ASF H:\Terrain\Patient Classification 1\Walking\liu\liu.ASF
:FULLY-SPECIFIED
:DEGREES
259
root 9.710380 16.718201 -0.282263 8.251770 -7.540740 1.041120
lowerback -2.833435 0.576340 -1.202235
upperback -0.976140 0.821210 0.734100
thorax 0.527175 0.414560 1.482900
lowerneck -10.214250 -2.401075 -6.415850
upperneck 9.356500 -2.895070 6.614700
head 5.059950 -1.064440 3.010080
rclavicle -0.000000 -0.000000
rhumerus -22.985050 4.835720 -43.007999
rradius 19.855650
rwrist -10.874300
rhand -15.965450 -12.300150
rfingers 3.562510
rthumb -2.591005 -27.258450
lclavicle -0.000000 -0.000000
lhumerus -18.351500 -4.295460 44.647148
lradius 11.319550
lwrist -1.003755
lhand -4.708865 -11.172600
lfingers 3.562510
lthumb 8.272150 3.484740
rfemur -4.028575 -0.915925 7.964700
rtibia 30.574350
rfoot 2.725595 -4.482485
rtoes -7.617250
lfemur -15.865400 4.521130 -13.710100
ltibia 18.015600
lfoot -6.139850 3.439725
ltoes -0.086273
260
root 9.729450 16.744499 -0.150326 8.113260 -7.435080 1.400670
lowerback -2.869670 0.487073 -1.363190
upperback -0.906655 0.712510 0.715615
thorax 0.622680 0.357870 1.549735
lowerneck -10.299100 -2.374070 -6.411450
upperneck 9.418000 -2.854970 6.619150
head 5.091450 -1.042385 3.019880
rclavicle 0.000000 0.000000
rhumerus -22.752451 4.438540 -42.692951
rradius 19.779699
rwrist -10.230500
rhand -15.391600 -11.829650
rfingers 3.562510
rthumb -2.036895 -26.800051
lclavicle 0.000000 0.000000
lhumerus -17.946199 -4.728045 44.773602
lradius 11.480100
lwrist -0.613385
lhand -5.111650 -11.162600
lfingers 3.562510
lthumb 7.884300 3.526265
rfemur -4.672615 -0.998205 7.840450
rtibia 31.262751
rfoot 1.855920 -4.978800
rtoes -7.747900
lfemur -15.374950 4.383225 -13.920400
ltibia 17.719200
lfoot -6.217450 3.551935
ltoes -0.866335
261
root 9.754940 16.772699 -0.013225 7.978110 -7.272360 1.396560
lowerback -2.915305 0.416276 -1.271975
upperback -0.827095 0.614235 0.715385
thorax 0.739325 0.305671 1.493820
lowerneck -10.358000 -2.345205 -6.283400
upperneck 9.419700 -2.823400 6.517100
head 5.090550 -1.027600 2.964290
rclavicle 0.000000 0.000000
rhumerus -22.742250 4.372410 -42.610950
rradius 19.971800
rwrist -10.267500
rhand -15.312800 -11.404450
rfingers 3.562510
rthumb -1.960815 -26.376301
lclavicle 0.000000 0.000000
lhumerus -17.470400 -5.076300 44.778950
lradius 11.458150
lwrist -0.448876
lhand -5.481450 -11.525750
lfingers 3.562510
lthumb 7.528150 3.190515
rfemur -5.246650 -1.056830 7.879950
rtibia 31.812401
rfoot 0.860895 -5.261050
rtoes -6.827800
lfemur -14.860400 4.267715 -13.942650
ltibia 17.474051
lfoot -6.371950 3.633280
ltoes -1.246010
262
root 9.778770 16.812901 0.121056 7.874420 -7.148840 0.933813
lowerback -2.883620 0.397821 -0.955440
upperback -0.786085 0.569990 0.751430
thorax 0.772765 0.282993 1.349560
lowerneck -10.339550 -2.309910 -6.100800
upperneck 9.464600 -2.809895 6.399100
head 5.091250 -1.021405 2.891965
rclavicle -0.000000 -0.000000
rhumerus -22.873800 4.458105 -42.661301
rradius 20.275749
rwrist -10.675500
rhand -15.489150 -11.434550
rfingers 3.562510
rthumb -2.131100 -26.403099
lclavicle -0.000000 -0.000000
lhumerus -16.997250 -5.265900 44.634998
lradius 11.505250
lwrist -0.645345
lhand -5.460800 -11.595800
lfingers 3.562510
lthumb 7.548000 3.118960
rfemur -5.814200 -1.026540 8.226950
rtibia 32.222549
rfoot 0.160769 -5.357650
rtoes -7.375850
lfemur -14.369150 4.224990 -13.694850
ltibia 17.234751
lfoot -6.505750 3.664930
ltoes -1.376585
263
root 9.795380 16.831100 0.239794 7.773680 -6.926680 0.373601
lowerback -2.734215 0.323118 -0.704540
upperback -0.799435 0.452399 0.888880
thorax 0.684655 0.225857 1.339475
lowerneck -10.417650 -2.275370 -6.028750
upperneck 9.689800 -2.762555 6.262850
head 5.172150 -1.006945 2.844155
rclavicle -0.000000 0.000000
rhumerus -22.921749 4.368335 -42.517448
rradius 20.402651
rwrist -10.641900
rhand -15.530950 -11.970050
rfingers 3.562510
rthumb -2.171440 -26.937750
lclavicle -0.000000 0.000000
lhumerus -16.657450 -5.546950 44.664001
lradius 11.643900
lwrist -0.514255
lhand -5.410400 -11.414100
lfingers 3.562510
lthumb 7.596550 3.297020
rfemur -6.419100 -1.003875 8.683250
rtibia 32.585751
rfoot -0.394714 -5.581850
rtoes -8.114650
lfemur -13.946600 4.215710 -13.386700
ltibia 16.973150
lfoot -6.541800 3.601195
ltoes -1.411555
264
root 9.811630 16.847500 0.364269 7.572470 -6.721260 0.579356
lowerback -2.655665 0.199742 -0.871870
upperback -0.774715 0.294834 0.971215
thorax 0.672430 0.146944 1.508065
lowerneck -10.605200 -2.249815 -6.014000
upperneck 9.941400 -2.692890 6.107050
head 5.281800 -0.986015 2.803670
rclavicle 0.000000 -0.000000
rhumerus -22.856899 4.208690 -42.226898
rradius 20.405199
rwrist -10.554600
rhand -15.484200 -11.942350
rfingers 3.562510
rthumb -2.126290 -26.910999
lclavicle 0.000000 -0.000000
lhumerus -16.285801 -5.945550 44.828449
lradius 11.766500
lwrist 0.018883
lhand -5.703750 -11.563600
lfingers 3.562510
lthumb 7.313950 3.168455
rfemur -6.993650 -1.084905 8.653550
rtibia 32.887451
rfoot -1.224565 -5.675100
rtoes -7.709750
lfemur -13.455900 4.204050 -13.500400
ltibia 16.678600
lfoot -6.712750 3.445735
ltoes -1.189825
265
root 9.830150 16.863100 0.491372 7.394690 -6.615190 1.289130
lowerback -2.691935 0.110831 -1.201585
upperback -0.737955 0.195487 0.909085
thorax 0.734890 0.095482 1.624345
lowerneck -10.593050 -2.207550 -5.940950
upperneck 9.983950 -2.632605 5.990100
head 5.280200 -0.966565 2.757865
rclavicle 0.000000 0.000000
rhumerus -22.847950 4.245805 -42.136799
rradius 20.496149
rwrist -10.835300
rhand -15.827750 -11.958450
rfingers 3.562510
rthumb -2.458070 -26.919901
lclavicle 0.000000 0.000000
lhumerus -15.806950 -6.177100 44.799549
lradius 11.815850
lwrist 0.238008
lhand -6.024300 -12.054400
lfingers 3.562510
lthumb 7.005100 2.699545
rfemur -7.621750 -1.120255 8.327300
rtibia 33.160450
rfoot -2.106275 -5.638650
rtoes -7.590150
lfemur -12.986950 4.207535 -13.905250
ltibia 16.423349
lfoot -6.984600 3.276660
ltoes -0.464543
266
root 9.850030 16.871300 0.616967 7.245110 -6.458460 1.505170
lowerback -2.716185 0.031669 -1.260570
upperback -0.685035 0.093855 0.896325
thorax 0.810240 0.042591 1.638260
lowerneck -10.569800 -2.148670 -5.942350
upperneck 10.016650 -2.557080 6.000650
head 5.277300 -0.931655 2.775285
rclavicle 0.000000 0.000000
rhumerus -22.819901 4.317025 -42.111950
rradius 20.570950
rwrist -11.050550
rhand -16.038601 -11.977350
rfingers 3.562510
rthumb -2.661625 -26.933950
lclavicle 0.000000 0.000000
lhumerus -15.262000 -6.302550 44.673801
lradius 11.810800
lwrist 0.277393
lhand -5.936100 -12.161850
lfingers 3.562510
lthumb 7.090050 2.586150
rfemur -8.216000 -1.027295 8.321800
rtibia 33.348549
rfoot -2.994070 -5.734250
rtoes -7.221250
lfemur -12.485550 4.198255 -14.051400
ltibia 16.105249
lfoot -7.140250 3.247820
ltoes -0.083157
